<svg width="100" height="100" viewBox="0 0 100 100" xmlns="http://www.w3.org/2000/svg">
  <!-- Black circular background -->
  <circle cx="50" cy="50" r="50" fill="#000000"/>
  
  <!-- Shoe outline -->
  <path d="M20 55 Q25 45 35 42 Q45 40 55 45 Q65 50 70 58 Q72 62 70 65 L25 65 Q18 62 20 55 Z" 
        fill="none" stroke="#FFFFFF" stroke-width="2.5"/>
  
  <!-- Shoe tongue -->
  <path d="M35 42 Q40 35 45 40 Q50 45 45 50" fill="#FFFFFF"/>
  
  <!-- Laces -->
  <g stroke="#000000" stroke-width="1.2" fill="none">
    <path d="M38 48 L42 52"/>
    <path d="M42 48 L46 52"/>
    <path d="M46 48 L50 52"/>
  </g>
  
  <!-- Sole -->
  <ellipse cx="47.5" cy="65" rx="22" ry="3" fill="#FFFFFF"/>
  
  <!-- Sole pattern -->
  <g stroke="#000000" stroke-width="1" fill="none">
    <path d="M30 75 L65 75"/>
    <path d="M32 78 L63 78"/>
    <path d="M34 81 L61 81"/>
  </g>
</svg>